<svg xmlns="http://www.w3.org/2000/svg" xmlns:xlink="http://www.w3.org/1999/xlink" version="1.0" x="0px" y="0px" viewBox="0 0 68.635 99.848" enable-background="new 0 0 68.635 99.848" xml:space="preserve"><path d="M46.68,64.517C74.499,19.438,27.205,0,27.205,0c12.164,10.145,16.409,44.657-5.868,45.114  C5.534,45.438,8.277,28.492,9.976,24.917C8.197,27.438-3.772,48.629,1.201,70.003c4.974,21.375,35.042,29.845,35.042,29.845  C30.023,81.213,41.916,72.17,46.68,64.517z"></path><path d="M59.161,38.038c2.465,4.582-2.596,23.759-9.987,32.491c-13.705,16.23-9.383,24.461-8.313,28.29  c0.169-0.4,1.947-2.261,14.586-10.921C82.771,69.223,59.161,38.038,59.161,38.038z"></path><path d="M40.893,98.928c-0.009-0.035-0.022-0.072-0.031-0.109C40.813,98.931,40.893,98.928,40.893,98.928z"></path><path d="M9.976,24.917c0.146-0.209,0.237-0.328,0.237-0.328C10.113,24.666,10.039,24.779,9.976,24.917z"></path></svg>